# xmcd CD database file
#
# Track frame offsets:
#	150
#	21905
#	63737
#	77105
#	97145
#	133572
#	157562
#	178877
#	214777
#	232870
#	250680
#
# Disc length: 3863 seconds
#
# Revision: 7
# Processed by: cddbd v1.5.2PL0 Copyright (c) Steve Scherf et al.
# Submitted via: CDex 1.70beta2
#
DISCID=8c0f150b
DTITLE=Markus Stockhausen and Arild Andersen and Patrice Héral and Terje Rypdal - Kartā - MP3
DYEAR=2000
DGENRE=Jazz
TTITLE0=Sezopen
TTITLE1=Flower of Now
TTITLE2=Wood and Naphta
TTITLE3=Sway
TTITLE4=Auma
TTITLE5=Legacy
TTITLE6=Invocation
TTITLE7=Wild Cat
TTITLE8=Emanation
TTITLE9=Choral
TTITLE10=Lighthouse
EXTD=Markus Stockhausen trumpet, piccolo trumpet, flugelhorn\nTerje Rypdal electric guitar\nArild Andersen double-bass\nPatrice Héral drums, percussion, live electronics YEAR: 2000
EXTT0=
EXTT1=
EXTT2=
EXTT3=
EXTT4=
EXTT5=
EXTT6=
EXTT7=
EXTT8=
EXTT9=
EXTT10=
PLAYORDER=
